<svg xmlns="http://www.w3.org/2000/svg" version="1.1" xmlns:xlink="http://www.w3.org/1999/xlink" xmlns:svgjs="http://svgjs.dev/svgjs" width="1000" height="1000" viewBox="0 0 1000 1000"><rect width="1000" height="1000" fill="#ffffff"></rect><g transform="matrix(0.7,0,0,0.7,149.57575757575756,371.6638898297664)"><svg viewBox="0 0 396 145" data-background-color="#ffffff" preserveAspectRatio="xMidYMid meet" height="366" width="1000" xmlns="http://www.w3.org/2000/svg" xmlns:xlink="http://www.w3.org/1999/xlink"><defs></defs><g id="tight-bounds" transform="matrix(1,0,0,1,0.2400000000000091,0.1336298777668503)"><svg viewBox="0 0 395.52 144.7327402444663" height="144.7327402444663" width="395.52"><g><svg viewBox="0 0 549.2849777162951 200.99999999999997" height="144.7327402444663" width="395.52"><g><rect width="8.380029860377359" height="200.99999999999997" x="203.75543276157808" y="0" fill="#ffffff" opacity="1" stroke-width="0" stroke="transparent" fill-opacity="1" class="rect-ei-0" data-fill-palette-color="primary" rx="1%" id="ei-0" data-palette-color="#ffffff"></rect></g><g transform="matrix(1,0,0,1,234.07271356535168,0.4999999999999858)"><svg viewBox="0 0 315.21226415094344 200" height="200" width="315.21226415094344"><g><svg viewBox="0 0 315.21226415094344 200" height="200" width="315.21226415094344"><g><svg viewBox="0 0 315.21226415094344 200" height="200" width="315.21226415094344"><g transform="matrix(1,0,0,1,0,0)"><svg width="315.21226415094344" viewBox="2.499999999999995 -36.05 133.65 80.85" height="200" data-palette-color="#ffffff"><svg></svg><svg></svg><g class="undefined-text-0" data-fill-palette-color="primary" id="text-0"><path d="M22.75-35.6c0.833 0.333 1.25 0.8 1.25 1.4v0c0 0.6-0.417 1.367-1.25 2.3v0c-0.367-0.033-0.9-0.05-1.6-0.05v0c-1.533 0-3 0.207-4.4 0.62-1.4 0.42-2.85 1.063-4.35 1.93v0c-0.7 0.433-1.3 0.983-1.8 1.65v0c-0.367 0.4-0.55 0.867-0.55 1.4v0c0 0.9 0.5 1.767 1.5 2.6v0c0.967 1 2.55 2.817 4.75 5.45v0l1.15 1.2c1.633 1.767 2.927 3.267 3.88 4.5 0.947 1.233 1.753 2.65 2.42 4.25v0c0.267 0.7 0.4 1.333 0.4 1.9v0c0 1.433-0.55 2.75-1.65 3.95v0c-1.267 1.4-2.733 2.427-4.4 3.08-1.667 0.647-3.55 1.053-5.65 1.22v0c-0.267 0.033-0.583 0.067-0.95 0.1-0.367 0.033-0.783 0.05-1.25 0.05v0c-0.3 0-0.75-0.033-1.35-0.1v0c-0.733 0.033-1.5-0.09-2.3-0.37-0.8-0.287-1.533-0.697-2.2-1.23v0c-1.267-1.067-1.9-2.25-1.9-3.55v0c0-1.1 0.467-2.217 1.4-3.35v0c0.467 0.067 0.743 0.207 0.83 0.42 0.08 0.22 0.097 0.463 0.05 0.73-0.053 0.267-0.08 0.483-0.08 0.65v0c0 0.1 0.033 0.25 0.1 0.45v0c1.3 0.6 2.85 0.9 4.65 0.9v0c2 0 3.893-0.343 5.68-1.03 1.78-0.68 2.87-1.52 3.27-2.52v0c0.233-0.667-0.333-1.843-1.7-3.53-1.367-1.68-2.9-3.32-4.6-4.92v0c-1.6-1.433-3.05-2.85-4.35-4.25v0c-0.733-0.8-1.307-1.727-1.72-2.78-0.42-1.047-0.63-2.137-0.63-3.27v0c0-1.533 0.393-2.983 1.18-4.35 0.78-1.367 1.953-2.483 3.52-3.35v0c3-1.7 6.067-2.55 9.2-2.55v0c0.433 0 1.05 0.033 1.85 0.1v0c0.733 0.067 1.267 0.183 1.6 0.35zM38.25-7.8c-0.333 0.2-0.817 0.3-1.45 0.3v0c-0.233 0-0.517-0.017-0.85-0.05-0.333-0.033-0.617-0.033-0.85 0v0c0.267 1.1 0.9 1.99 1.9 2.67 1 0.687 2.117 1.03 3.35 1.03v0c1.067 0 2.017-0.233 2.85-0.7v0c1.233-0.633 2.3-1.383 3.2-2.25v0c0.633-0.633 1.233-0.95 1.8-0.95v0c0.367 0 0.683 0.183 0.95 0.55v0c0.267 0.433 0.4 0.967 0.4 1.6v0c0 0.667-0.133 1.183-0.4 1.55v0c-0.867 1.333-1.99 2.25-3.37 2.75-1.387 0.5-2.997 0.75-4.83 0.75v0c-1.9 0-3.733-0.417-5.5-1.25-1.767-0.833-3.273-1.977-4.52-3.43-1.253-1.447-2.08-3.053-2.48-4.82v0c-0.267-1.033-0.4-2.05-0.4-3.05v0c0-1.567 0.443-2.833 1.33-3.8 0.88-0.967 2.303-1.883 4.27-2.75v0c1.8-0.767 3.467-1.15 5-1.15v0c1.1 0 2.167 0.167 3.2 0.5v0c3.2 1 4.8 2.367 4.8 4.1v0c0 1.1-0.65 2.433-1.95 4v0c-0.633 0.733-1.383 1.383-2.25 1.95-0.867 0.567-1.707 1.077-2.52 1.53-0.82 0.447-1.38 0.753-1.68 0.92zM40.35-17.05c-0.033-0.167-0.157-0.31-0.37-0.43-0.22-0.113-0.347-0.187-0.38-0.22v0c-0.9-0.067-1.817 0.19-2.75 0.77-0.933 0.587-1.707 1.33-2.32 2.23-0.62 0.9-0.93 1.767-0.93 2.6v0l0.05 0.4c0.033 0.133 0.21 0.3 0.53 0.5 0.313 0.2 0.503 0.267 0.57 0.2v0c2.367-1.767 4.15-3.183 5.35-4.25v0c0.2-0.2 0.3-0.567 0.3-1.1v0c0-0.333-0.017-0.567-0.05-0.7zM69.7-5.1c-1 1.133-2.017 2.023-3.05 2.67-1.033 0.653-2.183 0.98-3.45 0.98v0c-0.267 0-0.633-0.033-1.1-0.1v0l-1 0.05c-4.2 0.033-7.267-1.967-9.2-6v0c-0.433-0.933-0.65-2.05-0.65-3.35v0c0-1.133 0.167-2.217 0.5-3.25 0.333-1.033 0.8-1.883 1.4-2.55v0l0.95-1.15c0.467-0.6 0.833-1.017 1.1-1.25v0c1.167-1.133 2.717-1.7 4.65-1.7v0c1 0 1.983 0.167 2.95 0.5 0.967 0.333 1.817 0.783 2.55 1.35v0c0.133 0.1 0.267 0.307 0.4 0.62 0.133 0.32 0.2 0.58 0.2 0.78v0c0 0.267-0.2 0.557-0.6 0.87-0.4 0.32-0.767 0.463-1.1 0.43v0c-2.267-0.267-4.083 0.273-5.45 1.62-1.367 1.353-2.05 3.197-2.05 5.53v0c0 1.533 0.327 2.617 0.98 3.25 0.647 0.633 1.72 0.95 3.22 0.95v0c0.933 0 1.817-0.193 2.65-0.58 0.833-0.38 1.8-0.92 2.9-1.62v0l0.95-0.6c0.333-0.167 0.777-0.277 1.33-0.33 0.547-0.047 0.97-0.087 1.27-0.12v0c-0.033 0.3-0.04 0.59-0.02 0.87 0.013 0.287 0.02 0.513 0.02 0.68v0c0 0.733-0.117 1.217-0.35 1.45zM81.15-21.2c0.1 0.333 0.117 0.85 0.05 1.55v0l-0.6 5.9c0.167-0.133 0.417-0.61 0.75-1.43 0.333-0.813 0.65-1.48 0.95-2 0.3-0.513 0.533-0.853 0.7-1.02v0c1.567-1.5 3.333-2.4 5.3-2.7 1.967-0.3 4.133-0.433 6.5-0.4v0c0.233 0 0.493 0.09 0.78 0.27 0.28 0.187 0.42 0.337 0.42 0.45 0 0.12-0.1 0.303-0.3 0.55-0.2 0.253-0.383 0.413-0.55 0.48v0c-2 0.667-3.757 1.433-5.27 2.3-1.52 0.867-2.83 2-3.93 3.4v0c-2.6 3.3-4.1 6.7-4.5 10.2v0c-0.1 0.933-0.383 1.557-0.85 1.87-0.467 0.32-1.117 0.48-1.95 0.48v0c-0.933 0-1.767-0.4-2.5-1.2-0.733-0.8-1.1-1.683-1.1-2.65v0c0.033-3.533 0.05-8.833 0.05-15.9v0c0-0.967 0.217-1.643 0.65-2.03 0.433-0.38 1.217-0.57 2.35-0.57v0c0.833 0 1.543 0.233 2.13 0.7 0.58 0.467 0.887 1.05 0.92 1.75zM105.65-7.8c-0.333 0.2-0.817 0.3-1.45 0.3v0c-0.233 0-0.517-0.017-0.85-0.05-0.333-0.033-0.617-0.033-0.85 0v0c0.267 1.1 0.9 1.99 1.9 2.67 1 0.687 2.117 1.03 3.35 1.03v0c1.067 0 2.017-0.233 2.85-0.7v0c1.233-0.633 2.3-1.383 3.2-2.25v0c0.633-0.633 1.233-0.95 1.8-0.95v0c0.367 0 0.683 0.183 0.95 0.55v0c0.267 0.433 0.4 0.967 0.4 1.6v0c0 0.667-0.133 1.183-0.4 1.55v0c-0.867 1.333-1.99 2.25-3.37 2.75-1.387 0.5-2.997 0.75-4.83 0.75v0c-1.9 0-3.733-0.417-5.5-1.25-1.767-0.833-3.273-1.977-4.52-3.43-1.253-1.447-2.08-3.053-2.48-4.82v0c-0.267-1.033-0.4-2.05-0.4-3.05v0c0-1.567 0.443-2.833 1.33-3.8 0.88-0.967 2.303-1.883 4.27-2.75v0c1.8-0.767 3.467-1.15 5-1.15v0c1.1 0 2.167 0.167 3.2 0.5v0c3.2 1 4.8 2.367 4.8 4.1v0c0 1.1-0.65 2.433-1.95 4v0c-0.633 0.733-1.383 1.383-2.25 1.95-0.867 0.567-1.707 1.077-2.52 1.53-0.82 0.447-1.38 0.753-1.68 0.92zM107.75-17.05c-0.033-0.167-0.157-0.31-0.37-0.43-0.22-0.113-0.347-0.187-0.38-0.22v0c-0.9-0.067-1.817 0.19-2.75 0.77-0.933 0.587-1.707 1.33-2.32 2.23-0.62 0.9-0.93 1.767-0.93 2.6v0l0.05 0.4c0.033 0.133 0.21 0.3 0.53 0.5 0.313 0.2 0.503 0.267 0.57 0.2v0c2.367-1.767 4.15-3.183 5.35-4.25v0c0.2-0.2 0.3-0.567 0.3-1.1v0c0-0.333-0.017-0.567-0.05-0.7zM117.65-18.65c-0.233-0.267-0.39-0.55-0.47-0.85-0.087-0.3-0.163-0.717-0.23-1.25v0c0.3-0.7 0.85-1.05 1.65-1.05v0c0.4 0.067 0.683 0.1 0.85 0.1v0c0.667 0 1.083-0.2 1.25-0.6 0.167-0.4 0.25-0.867 0.25-1.4 0-0.533 0-0.95 0-1.25v0l0.15-3c0.033-0.667 0.077-1.493 0.13-2.48 0.047-0.98 0.103-2.12 0.17-3.42v0c0.033-0.7 0.21-1.217 0.53-1.55 0.313-0.333 0.753-0.5 1.32-0.5v0c0.4 0 0.717 0.033 0.95 0.1v0c1.367 0.3 2.283 0.733 2.75 1.3 0.467 0.567 0.783 1.417 0.95 2.55v0c0.033 0.233 0 0.717-0.1 1.45v0l-0.9 7.8c-0.033 0.2-0.083 0.44-0.15 0.72-0.067 0.287-0.1 0.497-0.1 0.63v0c0 0.3 0.167 0.5 0.5 0.6 0.333 0.1 0.95 0.133 1.85 0.1v0c1.533-0.333 2.7-0.55 3.5-0.65v0c0.167-0.033 0.433-0.05 0.8-0.05v0c0.4 0 0.667 0.05 0.8 0.15v0c0.133 0.067 0.243 0.257 0.33 0.57 0.08 0.32 0.12 0.68 0.12 1.08v0c0 0.367-0.04 0.7-0.12 1-0.087 0.3-0.197 0.467-0.33 0.5v0c-0.9 0.267-1.967 0.483-3.2 0.65v0c-1.467 0.267-2.55 0.5-3.25 0.7v0c-0.367 0.1-0.733 0.35-1.1 0.75-0.367 0.4-0.567 0.767-0.6 1.1v0c-0.067 1.633-0.117 3.3-0.15 5v0c-0.033 1.3 0.017 2.6 0.15 3.9v0c0.1 1.1 0.317 1.89 0.65 2.37 0.333 0.487 0.833 0.73 1.5 0.73v0c0.533 0 1.3-0.183 2.3-0.55v0c0.533-0.233 1-0.35 1.4-0.35v0c0.633 0 1.083 0.35 1.35 1.05v0c0.1 0.233 0.15 0.467 0.15 0.7v0c0 0.433-0.157 0.783-0.47 1.05-0.32 0.267-0.747 0.5-1.28 0.7v0c-1 0.367-2.017 0.567-3.05 0.6v0c-1.4 0-2.717-0.343-3.95-1.03-1.233-0.68-2.207-1.637-2.92-2.87-0.72-1.233-1.03-2.65-0.93-4.25v0c0.033-0.633 0.05-1.633 0.05-3v0c0-2.167-0.083-4.367-0.25-6.6v0c-0.033-0.2-0.15-0.34-0.35-0.42-0.2-0.087-0.533-0.18-1-0.28v0c-0.767-0.133-1.267-0.317-1.5-0.55z" data-fill-palette-color="primary" fill="#ffffff" opacity="1"></path><path d="M7.8 10.75c0.033 0.033-0.383-0.333-1.25-1.1v0c-0.6-0.533-1.05-0.917-1.35-1.15v0c0.133-0.9 0.467-1.533 1-1.9 0.533-0.367 1.233-0.65 2.1-0.85v0c0.9-0.233 1.867-0.35 2.9-0.35v0c1 0 2.017 0.1 3.05 0.3v0c2.967 0.533 5.583 1.15 7.85 1.85 2.267 0.7 4.383 1.683 6.35 2.95v0c1.367 0.833 2.517 1.817 3.45 2.95v0c1.367 1.767 2.05 3.567 2.05 5.4v0c0 1.567-0.517 3.183-1.55 4.85v0c-3.933 6.233-7.983 11.15-12.15 14.75v0c-2.533 2.233-5.333 4.067-8.4 5.5v0c-1.133 0.567-2.317 0.85-3.55 0.85v0c-1.467 0-2.883-0.417-4.25-1.25v0c-0.5-0.333-0.883-0.673-1.15-1.02-0.267-0.353-0.4-0.763-0.4-1.23v0l0.05-0.45 0.35-2.6c0.4-3.067 0.767-5.35 1.1-6.85v0l0.25-1.1c1-4.333 1.75-7.827 2.25-10.48 0.5-2.647 0.867-5.37 1.1-8.17v0zM14.4 10.15c-0.4-0.033-0.933 0-1.6 0.1v0l-1.1 0.15c0.8 0.667 1.383 1.25 1.75 1.75 0.367 0.5 0.55 1.033 0.55 1.6v0c0 0.133-0.033 0.367-0.1 0.7v0c-0.433 1.933-1.017 4.317-1.75 7.15v0l-1.8 7.2c-0.8 3.267-1.5 6.3-2.1 9.1v0c-0.1 0.367-0.157 0.773-0.17 1.22-0.02 0.453-0.03 0.78-0.03 0.98v0c0.3 0.133 0.467 0.2 0.5 0.2v0l0.65-0.25c5-2.433 9.267-5.833 12.8-10.2v0c1.433-1.833 2.643-3.567 3.63-5.2 0.98-1.633 1.72-3.35 2.22-5.15v0c0.133-0.433 0.2-0.95 0.2-1.55v0c0-1.033-0.257-1.967-0.77-2.8-0.52-0.833-1.23-1.467-2.13-1.9v0c-3.333-1.5-6.917-2.533-10.75-3.1zM45.55 21.2c0.1 0.333 0.117 0.85 0.05 1.55v0l-0.6 5.9c0.167-0.133 0.417-0.61 0.75-1.43 0.333-0.813 0.65-1.48 0.95-2 0.3-0.513 0.533-0.853 0.7-1.02v0c1.567-1.5 3.333-2.4 5.3-2.7 1.967-0.3 4.133-0.433 6.5-0.4v0c0.233 0 0.493 0.09 0.78 0.27 0.28 0.187 0.42 0.337 0.42 0.45 0 0.12-0.1 0.303-0.3 0.55-0.2 0.253-0.383 0.413-0.55 0.48v0c-2 0.667-3.757 1.433-5.27 2.3-1.52 0.867-2.83 2-3.93 3.4v0c-2.6 3.3-4.1 6.7-4.5 10.2v0c-0.1 0.933-0.383 1.557-0.85 1.87-0.467 0.32-1.117 0.48-1.95 0.48v0c-0.933 0-1.767-0.4-2.5-1.2-0.733-0.8-1.1-1.683-1.1-2.65v0c0.033-3.533 0.05-8.833 0.05-15.9v0c0-0.967 0.217-1.643 0.65-2.03 0.433-0.38 1.217-0.57 2.35-0.57v0c0.833 0 1.543 0.233 2.13 0.7 0.58 0.467 0.887 1.05 0.92 1.75zM75.55 39.85c-0.3-0.133-0.6-0.2-0.9-0.2v0c-0.3 0-0.557 0.073-0.77 0.22-0.22 0.153-0.463 0.38-0.73 0.68v0c-0.4 0.4-0.817 0.733-1.25 1v0c-0.4 0.233-1.133 0.45-2.2 0.65v0c-0.467 0.067-0.85 0.1-1.15 0.1v0c-1.4 0-2.857-0.31-4.37-0.93-1.52-0.613-2.597-1.353-3.23-2.22v0c-0.667-0.933-0.983-1.933-0.95-3v0c0.033-1.6 0.7-3.2 2-4.8v0c1.267-1.533 2.427-2.617 3.48-3.25 1.047-0.633 2.487-1.033 4.32-1.2v0c0.4 0 0.977-0.067 1.73-0.2 0.747-0.133 1.12-0.317 1.12-0.55v0c0-0.467-0.207-0.893-0.62-1.28-0.42-0.38-1.263-0.57-2.53-0.57v0c-0.467 0-1.167 0.033-2.1 0.1v0c-0.933 0.067-1.583 0.1-1.95 0.1v0c-1.133 0-1.95-0.183-2.45-0.55v0c-0.133-0.067-0.2-0.383-0.2-0.95v0c0-1 0.35-1.633 1.05-1.9v0c1.433-0.533 2.917-0.817 4.45-0.85v0c1.933 0 3.727 0.423 5.38 1.27 1.647 0.853 2.853 1.913 3.62 3.18v0c0.767 1.267 1.267 3.017 1.5 5.25v0c0.267 2.5 0.4 5.683 0.4 9.55v0c0 1.067-0.15 1.683-0.45 1.85v0c-0.267 0.167-0.517 0.25-0.75 0.25v0c-0.3 0-0.573-0.09-0.82-0.27-0.253-0.187-0.53-0.447-0.83-0.78v0c-0.3-0.367-0.567-0.6-0.8-0.7zM67.65 39.25c1.567-0.467 3.1-1.217 4.6-2.25v0c0.333-0.233 0.633-0.533 0.9-0.9 0.267-0.367 0.433-0.6 0.5-0.7v0c0.067-0.1 0.127-0.393 0.18-0.88 0.047-0.48 0.053-0.87 0.02-1.17v0c-0.033-0.1-0.09-0.367-0.17-0.8-0.087-0.433-0.213-0.817-0.38-1.15v0c-0.167-0.267-0.433-0.517-0.8-0.75-0.367-0.233-0.7-0.333-1-0.3v0c-0.633 0.033-1.317 0.267-2.05 0.7-0.733 0.433-1.417 1.017-2.05 1.75v0c-0.633 0.767-1.123 1.54-1.47 2.32-0.353 0.787-0.53 1.513-0.53 2.18v0c0.067 0.9 0.317 1.5 0.75 1.8v0c0.233 0.167 0.517 0.25 0.85 0.25v0c0.267 0 0.483-0.033 0.65-0.1zM99.95 36.75c-0.067-0.067-0.433-0.5-1.1-1.3v0c-1.1 2.567-1.883 4.283-2.35 5.15v0c-0.733 1.5-1.717 2.25-2.95 2.25v0c-0.567 0-1.25-0.183-2.05-0.55v0c-1.333-0.667-2.4-1.567-3.2-2.7-0.8-1.133-1.433-2.5-1.9-4.1v0c-0.667-2.267-1.267-4.633-1.8-7.1v0c-0.067-0.333-0.1-0.567-0.1-0.7v0c0-0.8 0.4-1.433 1.2-1.9v0c0.567-0.3 1.067-0.45 1.5-0.45v0c0.433 0 0.933 0.15 1.5 0.45v0c0.9 0.467 1.557 1.007 1.97 1.62 0.42 0.62 0.647 1.43 0.68 2.43v0c0.033 0.733 0.267 1.773 0.7 3.12 0.433 1.353 0.7 2.063 0.8 2.13v0c0.1-0.133 0.283-0.35 0.55-0.65 0.267-0.3 0.467-0.583 0.6-0.85v0l0.9-1.85c0.8-1.667 1.467-2.883 2-3.65v0c0.4-0.6 0.877-1.05 1.43-1.35 0.547-0.3 1.12-0.45 1.72-0.45v0c1.067 0 2.067 0.467 3 1.4v0c0.267 0.3 0.517 0.933 0.75 1.9v0c0.1 0.467 0.217 1.083 0.35 1.85v0c0.233 1.5 0.517 2.717 0.85 3.65v0c0.2 0.567 0.533 0.85 1 0.85v0c0.433 0 0.817-0.267 1.15-0.8v0c0.8-1.4 1.667-3.1 2.6-5.1v0c0.567-1.3 1.133-2.433 1.7-3.4 0.567-0.967 1.483-2.183 2.75-3.65v0c0.333-0.4 0.783-0.743 1.35-1.03 0.567-0.28 1.083-0.403 1.55-0.37v0c0.333 0.033 0.6 0.333 0.8 0.9 0.2 0.567 0.3 1.2 0.3 1.9v0c0 0.333-0.033 0.7-0.1 1.1v0c-0.167 0.8-0.383 1.517-0.65 2.15-0.267 0.633-0.65 1.5-1.15 2.6v0c-0.6 1.3-0.983 2.15-1.15 2.55v0l-0.65 1c-1.233 1.9-2.15 3.233-2.75 4v0c-0.867 1.067-1.967 2.067-3.3 3v0c-0.5 0.367-1.033 0.55-1.6 0.55v0c-0.467 0-0.917-0.093-1.35-0.28-0.433-0.18-0.85-0.397-1.25-0.65-0.4-0.247-0.7-0.437-0.9-0.57v0c-0.7-0.4-1.567-1.15-2.6-2.25v0c-0.333-0.4-0.6-0.683-0.8-0.85zM124.95 43.5c-2.8 0-4.583-1.2-5.35-3.6v0c0.267 0 0.623 0.007 1.07 0.02 0.453 0.02 0.83 0.063 1.13 0.13v0c0.467 0.067 0.8 0.1 1 0.1v0c1.5 0 2.75-0.667 3.75-2v0c0.7-0.967 1.05-1.95 1.05-2.95v0c0-0.667-0.167-1.317-0.5-1.95v0c-0.733-1.3-1.633-2.733-2.7-4.3v0c-0.7-1.033-1.333-2.017-1.9-2.95v0c-0.667-1.067-1-2.25-1-3.55v0c0-1.2 0.343-2.26 1.03-3.18 0.68-0.913 1.687-1.487 3.02-1.72v0l1.6-0.3c1.733-0.333 3.033-0.5 3.9-0.5v0c1.433 0 2.7 0.333 3.8 1v0c0.233 0.167 0.473 0.457 0.72 0.87 0.253 0.42 0.447 0.747 0.58 0.98v0c-0.233 0.1-0.557 0.257-0.97 0.47-0.42 0.22-0.78 0.347-1.08 0.38v0c-0.467 0.067-1.167 0.1-2.1 0.1v0c-0.9 0-1.583 0.017-2.05 0.05v0c-1.067 0.1-1.91 0.457-2.53 1.07-0.613 0.62-0.92 1.363-0.92 2.23v0c0 0.667 0.2 1.35 0.6 2.05v0c0.9 1.5 2.15 3.217 3.75 5.15v0c1.2 1.5 1.8 3.05 1.8 4.65v0c0 0.867-0.2 1.783-0.6 2.75v0c-1.367 3.333-3.733 5-7.1 5z" data-fill-palette-color="primary" fill="#ffffff" opacity="1"></path></g></svg></g></svg></g></svg></g></svg></g><g transform="matrix(1,0,0,1,0,0.4999999999999716)"><svg viewBox="0 0 181.81818181818184 200.00000000000003" height="200.00000000000003" width="181.81818181818184"><g><svg xmlns="http://www.w3.org/2000/svg" xmlns:xlink="http://www.w3.org/1999/xlink" version="1.1" x="0" y="0" viewBox="2 0 40 44" style="enable-background:new 0 0 44 44;" xml:space="preserve" height="200.00000000000003" width="181.81818181818184" class="icon-icon-0" data-fill-palette-color="accent" id="icon-0"><g fill="#ffffff" data-fill-palette-color="accent"><g fill="#ffffff" data-fill-palette-color="accent"><circle cx="12" cy="21" r="1.0" fill="#ffffff" data-fill-palette-color="accent"></circle></g><g fill="#ffffff" data-fill-palette-color="accent"><circle cx="22" cy="21" r="1.0" fill="#ffffff" data-fill-palette-color="accent"></circle></g><g fill="#ffffff" data-fill-palette-color="accent"><path d="M14 30.5c1.659 1.333 4.341 1.333 6 0" fill="#ffffff" data-fill-palette-color="accent"></path><path d="M17 32.505c-1.305 0-2.61-0.408-3.626-1.226-0.431-0.346-0.499-0.976-0.153-1.405 0.345-0.431 0.976-0.499 1.406-0.153 1.286 1.033 3.461 1.033 4.747 0 0.43-0.346 1.061-0.278 1.406 0.153 0.346 0.43 0.278 1.06-0.153 1.405C19.61 32.097 18.305 32.505 17 32.505z" fill="#ffffff" data-fill-palette-color="accent"></path></g><path d="M41.395 5.357c-0.072-0.085-0.116-0.192-0.125-0.304-0.1-1.247-1.077-2.224-2.324-2.323-0.111-0.009-0.216-0.052-0.302-0.125-0.952-0.812-2.334-0.812-3.285-0.001-0.086 0.074-0.191 0.117-0.304 0.126-0.274 0.022-0.532 0.093-0.773 0.193C30.459 1.012 26.226 0 21.942 0H15C9.214 0 4.468 4.493 4.042 10.171 2.859 10.573 2 11.683 2 13v2c0 0.462 0.114 0.895 0.302 1.287C2.116 16.468 2 16.72 2 17v3.172c0 0.801 0.312 1.555 0.879 2.121L4 23.414v0.592c-0.207 0-0.412 0.059-0.584 0.183C3.154 24.377 3 24.679 3 25v2.766c0 6.062 3.306 11.632 8.628 14.534l1.137 0.62C14.06 43.626 15.524 44 17 44c1.476 0 2.94-0.374 4.234-1.08l1.137-0.62h0C27.694 39.397 31 33.828 31 27.766V25c0-0.332-0.165-0.642-0.439-0.828-0.168-0.113-0.363-0.164-0.561-0.165v-0.593l1.121-1.121C31.688 21.727 32 20.973 32 20.172V17c0-0.28-0.116-0.532-0.301-0.713C31.886 15.895 32 15.462 32 15v-2c0-1.114-0.618-2.077-1.522-2.595 0.183-0.333 0.401-0.646 0.695-0.901 0.429-0.372 0.944-0.612 1.486-0.734 0.027 0.058 0.067 0.111 0.072 0.175 0.1 1.247 1.077 2.224 2.324 2.323 0.112 0.009 0.217 0.052 0.302 0.125 0.476 0.406 1.06 0.609 1.643 0.609s1.167-0.203 1.642-0.608c0.086-0.074 0.191-0.117 0.304-0.126 1.247-0.1 2.224-1.076 2.323-2.323 0.009-0.111 0.054-0.219 0.126-0.304C41.8 8.166 42 7.583 42 7 42 6.417 41.8 5.833 41.395 5.357zM29 27.766c0 5.33-2.907 10.227-7.586 12.778l-1.137 0.62c-2.002 1.094-4.549 1.094-6.554 0l-1.137-0.62C7.907 37.992 5 33.096 5 27.766v-1.378l1.335 0.444c2.383 0.796 4.98 0.718 7.313-0.214 0.232-0.093 0.467-0.168 0.704-0.238 0.502 0.958 1.494 1.62 2.649 1.62 1.182 0 2.197-0.694 2.685-1.69 0.161 0.042 0.322 0.08 0.481 0.133l1.168 0.39c2.383 0.795 4.98 0.717 7.313-0.214L29 26.478V27.766zM16 25c0-0.552 0.449-1 1.001-1C17.552 24 18 24.448 18 25s-0.448 1-0.999 1C16.449 26 16 25.552 16 25zM30 20.172c0 0.143-0.037 0.282-0.097 0.412C29.745 20.241 29.403 20 29 20c-0.552 0-1 0.447-1 1v3.723l-0.094 0.038c-1.895 0.759-4.004 0.819-5.938 0.175l-1.168-0.391c-0.293-0.097-0.591-0.175-0.89-0.245-0.317-1.316-1.496-2.3-2.908-2.3-1.442 0-2.648 1.022-2.935 2.379-0.392 0.104-0.78 0.229-1.161 0.382-1.895 0.759-4.003 0.818-5.938 0.175L6 24.613V21c0-0.553-0.448-1-1-1-0.403 0-0.745 0.241-0.903 0.584C4.037 20.454 4 20.315 4 20.172V18h1 24 1V20.172zM30 15c0 0.552-0.449 1-1 1H5c-0.551 0-1-0.448-1-1v-2c0-0.552 0.449-1 1-1h24c0.551 0 1 0.448 1 1V15zM32.731 5.054c-0.009 0.111-0.054 0.219-0.126 0.304-0.373 0.438-0.566 0.968-0.596 1.504C31.282 7.057 30.596 7.403 30 7.887V7c0-0.553-0.448-1-1-1s-1 0.447-1 1v3H6.059c0.5-4.493 4.317-8 8.941-8h6.942c3.777 0 7.512 0.85 10.918 2.457C32.797 4.648 32.748 4.845 32.731 5.054zM39.873 7.346c-0.348 0.407-0.554 0.905-0.597 1.44-0.021 0.263-0.227 0.469-0.488 0.489-0.534 0.042-1.033 0.249-1.443 0.598-0.199 0.17-0.49 0.171-0.691-0.001-0.409-0.348-0.908-0.555-1.441-0.597-0.262-0.021-0.467-0.227-0.488-0.489-0.043-0.535-0.25-1.033-0.597-1.44-0.17-0.2-0.17-0.491 0-0.691 0.348-0.407 0.554-0.905 0.597-1.44 0.021-0.263 0.227-0.469 0.488-0.489 0.534-0.042 1.033-0.249 1.443-0.598 0.1-0.085 0.223-0.128 0.345-0.128s0.245 0.043 0.345 0.128c0 0 0.001 0.001 0.001 0.001 0.409 0.348 0.908 0.555 1.441 0.597 0.262 0.021 0.467 0.227 0.488 0.489 0.043 0.535 0.25 1.033 0.597 1.44C40.043 6.854 40.043 7.146 39.873 7.346z" fill="#ffffff" data-fill-palette-color="accent"></path></g></svg><g></g></g></svg></g></svg></g></svg><rect width="395.52" height="144.7327402444663" fill="none" stroke="none" visibility="hidden"></rect></g></svg></g></svg>